#N canvas 852 176 450 300 10;
#X obj 124 200 netsend;
#X floatatom 124 228 5 0 0 0 - - -;
#X msg 182 172 connect localhost 6000;
#X floatatom 110 42 5 0 0 0 - - -;
#X floatatom 362 70 5 0 0 0 - - -;
#X floatatom 67 42 5 0 0 0 - - -;
#X floatatom 90 -6 5 0 0 0 - - -;
#X obj 243 17 + 3;
#X msg 43 132 send arvoA \$1;
#X msg 140 133 send arvoB \$1;
#X connect 0 0 1 0;
#X connect 2 0 0 0;
#X connect 3 0 9 0;
#X connect 5 0 8 0;
#X connect 6 0 5 0;
#X connect 6 0 7 0;
#X connect 7 0 3 0;
#X connect 8 0 0 0;
#X connect 9 0 0 0;
